<svg xmlns="http://www.w3.org/2000/svg" viewBox="0 0 1200 520" role="img" aria-labelledby="title desc"><title id="title">Driveway resurfacing before and after</title><desc id="desc">Illustrative split view showing a cracked driveway and a renewed resurfaced driveway.</desc><defs><linearGradient id="sky" x1="0" y1="0" x2="0" y2="1"><stop stop-color="#c9d8df"/><stop offset="1" stop-color="#eef2ee"/></linearGradient><linearGradient id="old" x1="0" y1="0" x2="1" y2="1"><stop stop-color="#77756f"/><stop offset="1" stop-color="#a19d94"/></linearGradient><linearGradient id="new" x1="0" y1="0" x2="1" y2="1"><stop stop-color="#c6c0b7"/><stop offset="1" stop-color="#8f8a83"/></linearGradient><pattern id="grain" width="34" height="34" patternUnits="userSpaceOnUse"><circle cx="4" cy="6" r="1.8" fill="#fff" opacity=".18"/><circle cx="25" cy="16" r="1.2" fill="#1b2420" opacity=".12"/><circle cx="14" cy="29" r="1.5" fill="#fff" opacity=".14"/></pattern></defs><rect width="1200" height="520" fill="url(#sky)"/><rect y="0" width="1200" height="190" fill="#dce6df"/><rect y="118" width="1200" height="72" fill="#61775f" opacity=".75"/><rect x="70" y="38" width="410" height="190" rx="8" fill="#e8e1d5"/><rect x="105" y="79" width="340" height="149" fill="#dad3c8" stroke="#b8b0a6" stroke-width="6"/><path d="M600 0v520" stroke="#fff" stroke-width="8"/><path d="M0 520 115 205h485v315z" fill="url(#old)"/><path d="M600 520V205h485l115 315z" fill="url(#new)"/><path d="M330 245 290 315l48 36-76 106M175 280l75 41-46 72 85 61M465 230l-55 88 45 42-51 93" fill="none" stroke="#373b38" stroke-width="9" stroke-linecap="round" opacity=".8"/><path d="M600 520V205h485l115 315z" fill="url(#grain)"/><path d="M764 205v315M965 205v315M600 365h600" stroke="#6f6a64" stroke-width="5" opacity=".72"/><rect x="32" y="438" width="118" height="50" rx="25" fill="#14221e" opacity=".88"/><text x="91" y="470" fill="white" text-anchor="middle" font-family="Arial,sans-serif" font-size="22" font-weight="700">BEFORE</text><rect x="1050" y="438" width="118" height="50" rx="25" fill="#b15e38" opacity=".92"/><text x="1109" y="470" fill="white" text-anchor="middle" font-family="Arial,sans-serif" font-size="22" font-weight="700">AFTER</text></svg>