<svg xmlns="http://www.w3.org/2000/svg" viewBox="0 0 1200 330" role="img" aria-label="Residential concrete resurfacing before and after gallery row 3"><defs><linearGradient id="bg" x2="1" y2="1"><stop stop-color="#151918"/><stop offset="1" stop-color="#0d1110"/></linearGradient><pattern id="old" width="48" height="48" patternUnits="userSpaceOnUse"><rect width="48" height="48" fill="#8b8984"/><path d="M0 10L22 18 12 48M48 4L30 28 48 40" fill="none" stroke="#55534f" stroke-width="3"/></pattern><pattern id="new" width="28" height="28" patternUnits="userSpaceOnUse"><rect width="28" height="28" fill="#b9a891"/><path d="M0 14H28M14 0V28" stroke="#d9cbb7" stroke-width="1" opacity=".7"/></pattern><linearGradient id="gold" x2="1"><stop stop-color="#c79437"/><stop offset="1" stop-color="#efcf82"/></linearGradient><style>.t{font:800 15px Arial;fill:#f4cc72}.s{font:700 11px Arial;fill:#eee}.b{font:800 12px Arial;fill:#fff}.h{font:800 16px Arial;fill:#f3cf7f}</style></defs><rect width="100%" height="100%" fill="url(#bg)"/><text x="600" y="22" text-anchor="middle" class="h">RESIDENTIAL BEFORE &amp; AFTER</text><g transform="translate(12 34)"><rect width="276" height="225" rx="12" fill="#222" stroke="#6f6a60"/><rect width="138" height="190" rx="12" fill="url(#old)"/><rect x="138" width="138" height="190" rx="12" fill="url(#new)"/><path d="M20 190Q65 100 105 0" stroke="#c5c2bb" stroke-width="42" fill="none"/><path d="M158 190Q203 100 243 0" stroke="#e7dfd2" stroke-width="42" fill="none"/><line x1="138" y1="0" x2="138" y2="190" stroke="#fff" stroke-width="2"/><circle cx="138" cy="95" r="16" fill="url(#gold)" stroke="#fff"/><path d="M134 88l7 7-7 7" fill="none" stroke="#fff" stroke-width="2"/><rect y="190" width="276" height="35" fill="#111" opacity=".88"/><text x="69" y="212" text-anchor="middle" class="b">BEFORE</text><text x="207" y="212" text-anchor="middle" class="b">AFTER</text><text x="138" y="252" text-anchor="middle" class="t">WALKWAY RESURFACING</text><text x="138" y="272" text-anchor="middle" class="s">BLOOMINGTON, MN</text></g><g transform="translate(304 34)"><rect width="276" height="225" rx="12" fill="#222" stroke="#6f6a60"/><rect width="138" height="190" rx="12" fill="url(#old)"/><rect x="138" width="138" height="190" rx="12" fill="url(#new)"/><rect x="14" y="28" width="72" height="130" rx="18" fill="#6caec0"/><rect x="152" y="28" width="72" height="130" rx="18" fill="#79bfd0"/><path d="M92 30v130M230 30v130" stroke="#eee" stroke-width="5"/><line x1="138" y1="0" x2="138" y2="190" stroke="#fff" stroke-width="2"/><circle cx="138" cy="95" r="16" fill="url(#gold)" stroke="#fff"/><path d="M134 88l7 7-7 7" fill="none" stroke="#fff" stroke-width="2"/><rect y="190" width="276" height="35" fill="#111" opacity=".88"/><text x="69" y="212" text-anchor="middle" class="b">BEFORE</text><text x="207" y="212" text-anchor="middle" class="b">AFTER</text><text x="138" y="252" text-anchor="middle" class="t">POOL DECK RESURFACING</text><text x="138" y="272" text-anchor="middle" class="s">SHAKOPEE, MN</text></g><g transform="translate(596 34)"><rect width="276" height="225" rx="12" fill="#222" stroke="#6f6a60"/><rect width="138" height="190" rx="12" fill="url(#old)"/><rect x="138" width="138" height="190" rx="12" fill="url(#new)"/><circle cx="70" cy="95" r="55" fill="none" stroke="#66615b" stroke-width="4"/><circle cx="208" cy="95" r="55" fill="none" stroke="#d8c4a9" stroke-width="4"/><path d="M25 95h90M163 95h90" stroke="#77716a"/><line x1="138" y1="0" x2="138" y2="190" stroke="#fff" stroke-width="2"/><circle cx="138" cy="95" r="16" fill="url(#gold)" stroke="#fff"/><path d="M134 88l7 7-7 7" fill="none" stroke="#fff" stroke-width="2"/><rect y="190" width="276" height="35" fill="#111" opacity=".88"/><text x="69" y="212" text-anchor="middle" class="b">BEFORE</text><text x="207" y="212" text-anchor="middle" class="b">AFTER</text><text x="138" y="252" text-anchor="middle" class="t">PATIO RESURFACING</text><text x="138" y="272" text-anchor="middle" class="s">MENDOTA HEIGHTS, MN</text></g><g transform="translate(888 34)"><rect width="276" height="225" rx="12" fill="#222" stroke="#6f6a60"/><rect width="138" height="190" rx="12" fill="url(#old)"/><rect x="138" width="138" height="190" rx="12" fill="url(#new)"/><path d="M10 165h105v-32H32v-32h62V69h45" fill="none" stroke="#c1bdb5" stroke-width="20"/><path d="M148 165h115v-32h-88v-32h66V69h35" fill="none" stroke="#d9c6ad" stroke-width="20"/><line x1="138" y1="0" x2="138" y2="190" stroke="#fff" stroke-width="2"/><circle cx="138" cy="95" r="16" fill="url(#gold)" stroke="#fff"/><path d="M134 88l7 7-7 7" fill="none" stroke="#fff" stroke-width="2"/><rect y="190" width="276" height="35" fill="#111" opacity=".88"/><text x="69" y="212" text-anchor="middle" class="b">BEFORE</text><text x="207" y="212" text-anchor="middle" class="b">AFTER</text><text x="138" y="252" text-anchor="middle" class="t">FRONT STEP RESURFACING</text><text x="138" y="272" text-anchor="middle" class="s">SAVAGE, MN</text></g></svg>